<svg width="21" height="21" viewBox="0 0 21 21" fill="none" xmlns="http://www.w3.org/2000/svg">
<path d="M10.2857 19.5714C15.4141 19.5714 19.5714 15.4141 19.5714 10.2857C19.5714 5.15736 15.4141 1 10.2857 1C5.15736 1 1 5.15736 1 10.2857C1 15.4141 5.15736 19.5714 10.2857 19.5714Z" stroke="#FDFCFC" stroke-opacity="0.5" stroke-width="2" stroke-linecap="round" stroke-linejoin="round"/>
<path d="M1.71436 13.8576H4.21436C4.8774 13.8576 5.51328 13.5942 5.98213 13.1254C6.45097 12.6565 6.71436 12.0206 6.71436 11.3576V9.21476C6.71436 8.55171 6.97774 7.91583 7.44658 7.44698C7.91543 6.97814 8.55131 6.71476 9.21436 6.71476C9.8774 6.71476 10.5133 6.45136 10.9821 5.98251C11.451 5.51367 11.7144 4.8778 11.7144 4.21476V1.10046" stroke="#FDFCFC" stroke-opacity="0.5" stroke-width="2" stroke-linecap="round" stroke-linejoin="round"/>
<path d="M19.5715 10.1428C18.8562 9.77171 18.0631 9.57585 17.2572 9.57141H14.2144C13.5513 9.57141 12.9154 9.8348 12.4466 10.3036C11.9777 10.7725 11.7144 11.4084 11.7144 12.0714C11.7144 12.7345 11.9777 13.3703 12.4466 13.8392C12.9154 14.308 13.5513 14.5714 14.2144 14.5714C14.6879 14.5714 15.1422 14.7596 15.4771 15.0944C15.8119 15.4293 16.0001 15.8836 16.0001 16.3571V17.6" stroke="#FDFCFC" stroke-opacity="0.5" stroke-width="2" stroke-linecap="round" stroke-linejoin="round"/>
</svg>
